<?xml version="1.0" encoding="UTF-8"?>
<svg version="1.1" xmlns="http://www.w3.org/2000/svg" width="128" height="128">
<path d="M0 0 C42.24 0 84.48 0 128 0 C128 42.24 128 84.48 128 128 C85.76 128 43.52 128 0 128 C0 85.76 0 43.52 0 0 Z " fill="#FEFDFD" transform="translate(0,0)"/>
<path d="M0 0 C1.11012451 -0.01853027 2.22024902 -0.03706055 3.36401367 -0.05615234 C11.84532906 0.00924143 17.54658055 1.69996296 23.875 7.375 C35.92860268 20.20268726 44.09327091 33.4370117 43.7734375 51.2265625 C43.31120686 61.70226493 37.63101657 69.49748832 30.31640625 76.62890625 C17.3077588 87.88597884 1.84107064 90.90069529 -14.875 90.875 C-15.96901123 90.87338867 -17.06302246 90.87177734 -18.19018555 90.87011719 C-26.79693675 90.73952758 -35.99464826 90.47713809 -42.765625 84.5 C-44.72993054 82.23485488 -45.42087079 80.29304031 -46.5 77.5 C-47.27413596 76.25971765 -48.06796804 75.03163339 -48.875 73.8125 C-55.33186655 63.65243057 -58.53767451 51.43283611 -59.5 39.5 C-59.59925781 38.74460938 -59.69851562 37.98921875 -59.80078125 37.2109375 C-60.44047921 29.30878628 -57.31512784 23.62283342 -52.5 17.5 C-38.46272995 4.27257245 -18.58658802 0.19475992 0 0 Z " fill="#FEF8F9" transform="translate(75.5,20.5)"/>
<path d="M0 0 C1.11012451 -0.01853027 2.22024902 -0.03706055 3.36401367 -0.05615234 C11.84532906 0.00924143 17.54658055 1.69996296 23.875 7.375 C35.92860268 20.20268726 44.09327091 33.4370117 43.7734375 51.2265625 C43.31120686 61.70226493 37.63101657 69.49748832 30.31640625 76.62890625 C17.3077588 87.88597884 1.84107064 90.90069529 -14.875 90.875 C-15.96901123 90.87338867 -17.06302246 90.87177734 -18.19018555 90.87011719 C-26.79693675 90.73952758 -35.99464826 90.47713809 -42.765625 84.5 C-44.72993054 82.23485488 -45.42087079 80.29304031 -46.5 77.5 C-47.27413596 76.25971765 -48.06796804 75.03163339 -48.875 73.8125 C-55.33186655 63.65243057 -58.53767451 51.43283611 -59.5 39.5 C-59.59925781 38.74460938 -59.69851562 37.98921875 -59.80078125 37.2109375 C-60.44047921 29.30878628 -57.31512784 23.62283342 -52.5 17.5 C-38.46272995 4.27257245 -18.58658802 0.19475992 0 0 Z M-47.5 27.5 C-47.5 27.83 -47.5 28.16 -47.5 28.5 C-42.73692563 29.45261487 -38.3333472 29.58333357 -33.5 29.5 C-32.51 27.52 -31.52 25.54 -30.5 23.5 C-28.85 23.5 -27.2 23.5 -25.5 23.5 C-25.355625 24.2425 -25.21125 24.985 -25.0625 25.75 C-24.876875 26.6575 -24.69125 27.565 -24.5 28.5 C-24.4071875 29.180625 -24.314375 29.86125 -24.21875 30.5625 C-23.67656035 32.6620523 -23.67656035 32.6620523 -21.65234375 33.546875 C-20.92144531 33.77890625 -20.19054687 34.0109375 -19.4375 34.25 C-18.70402344 34.49234375 -17.97054687 34.7346875 -17.21484375 34.984375 C-16.64894531 35.15453125 -16.08304688 35.3246875 -15.5 35.5 C-15.45745644 37.49954746 -15.45919217 39.50041636 -15.5 41.5 C-15.995 41.995 -15.995 41.995 -16.5 42.5 C-20.61498055 42.09524781 -24.50363765 41.55970957 -28.5 40.5 C-29.50533667 42.12170379 -30.50411907 43.74747237 -31.5 45.375 C-32.056875 46.27992187 -32.61375 47.18484375 -33.1875 48.1171875 C-34.66082329 50.33857467 -34.66082329 50.33857467 -34.5 52.5 C-36.81 51.84 -39.12 51.18 -41.5 50.5 C-40.98636193 46.73332085 -40.23730949 43.85879836 -38.5 40.5 C-38.5 39.51 -38.5 38.52 -38.5 37.5 C-42.13 37.17 -45.76 36.84 -49.5 36.5 C-49.16991278 49.37340155 -45.81147353 65.86585164 -36.5 75.5 C-26.96518417 82.71223249 -13.57839526 81.43571607 -2.22607422 80.265625 C10.92846385 78.32390149 20.30300964 72.954529 28.953125 62.79296875 C34.06365276 55.56576717 34.65053299 47.05125869 33.5 38.5 C31.23320972 35.59385862 30.59800923 34.92936605 27.5 33.5 C26.74203125 33.11457031 25.9840625 32.72914062 25.203125 32.33203125 C20.55545104 30.09998803 20.55545104 30.09998803 15.5 29.5 C15.43941406 30.41523437 15.37882812 31.33046875 15.31640625 32.2734375 C15.19072266 34.05621094 15.19072266 34.05621094 15.0625 35.875 C14.94068359 37.65003906 14.94068359 37.65003906 14.81640625 39.4609375 C14.5 42.5 14.5 42.5 13.5 44.5 C11.52 44.5 9.54 44.5 7.5 44.5 C7.26731085 38.21739294 8.09545452 32.61980533 9.5 26.5 C8.93410156 26.22285156 8.36820313 25.94570313 7.78515625 25.66015625 C7.05167969 25.29792969 6.31820312 24.93570313 5.5625 24.5625 C4.83160156 24.20285156 4.10070312 23.84320313 3.34765625 23.47265625 C1.5 22.5 1.5 22.5 0.5 21.5 C0.45936168 19.83382885 0.457279 18.16611905 0.5 16.5 C5.43270529 14.8557649 8.04024193 16.31384408 12.5 18.5 C13.16 16.52 13.82 14.54 14.5 12.5 C11.32056552 10.63620957 8.94854682 10.23403074 5.28125 10.19921875 C4.27239746 10.18963135 3.26354492 10.18004395 2.22412109 10.17016602 C-16.24878623 10.26948272 -34.32431163 13.01492646 -47.5 27.5 Z " fill="#E71E24" transform="translate(75.5,20.5)"/>
<path d="M0 0 C1.43519075 2.8703815 1.30055383 4.80423776 1 8 C-3.25846071 16.29544119 -8.65683246 22.72797681 -17 27 C-17.86214111 27.50430542 -17.86214111 27.50430542 -18.74169922 28.01879883 C-23.90872938 30.89512507 -28.12261335 31.67230068 -34 31.5625 C-34.81944092 31.55444336 -35.63888184 31.54638672 -36.4831543 31.53808594 C-46.9919651 31.20121955 -57.56771051 28.50600248 -66 22 C-66.5 19.375 -66.5 19.375 -66 17 C-65.34 16.34 -64.68 15.68 -64 15 C-56.48805428 15.40426322 -49.51102785 17.29336115 -42.28515625 19.27148438 C-33.92296188 21.48276564 -33.92296188 21.48276564 -25.5234375 20.08203125 C-17.60037669 15.40022259 -13.29199516 10.19160173 -8.55078125 2.328125 C-5.98809151 -1.51913718 -4.22388565 -1.19135236 0 0 Z " fill="#E72026" transform="translate(105,63)"/>
</svg>
